<svg xmlns="http://www.w3.org/2000/svg" width="200" height="200" fill="none" viewBox="0 0 200 200">
    <path fill="url(#a)" fill-rule="evenodd" d="M100 26H100v107.032a58.393 58.393 0 0 1-11.832 4.725 5.594 5.594 0 0 1-1.63.243c-3.15 0-5.715-2.617-5.715-5.835 0-1.885.876-3.625 2.359-4.722.033-.026.067-.05.101-.075a51.251 51.251 0 0 0 4.121-3.321l-.023-.022a60.432 60.432 0 0 1-14.173-19.959C69.754 96.224 68 87.854 68 79.189c0-10.841 2.835-21.483 8.199-30.774C81.403 39.4 88.84 31.866 97.71 26.627A4.498 4.498 0 0 1 100 26z" clip-rule="evenodd"/>
    <path fill="url(#b)" fill-rule="evenodd" d="M100 26c.791 0 1.581.21 2.29.628 8.869 5.248 16.307 12.794 21.511 21.822C129.165 57.756 132 68.414 132 79.272s-2.835 21.516-8.199 30.821c-5.204 9.029-12.642 16.575-21.511 21.822A59.647 59.647 0 0 1 100 133.2V26z" clip-rule="evenodd"/>
    <path fill="#ECF6FE" fill-rule="evenodd" d="M100 26c.792 0 1.585.208 2.295.625 8.89 5.215 16.346 12.715 21.562 21.688a60.47 60.47 0 0 1 3.344 6.675L100 82V26z" clip-rule="evenodd"/>
    <path fill="#00356A" fill-rule="evenodd" d="M82.875 150.481c.79 0 1.432.645 1.432 1.441 0 .797-.641 1.442-1.432 1.442h-4.112c-1.035 0-1.728.154-2.318.472a2.912 2.912 0 0 0-1.217 1.225c-.316.595-.469 1.292-.469 2.334v5.691c0 1.042.153 1.739.469 2.333a2.92 2.92 0 0 0 1.217 1.226c.537.289 1.158.442 2.044.467l.274.004h4.112c.79 0 1.432.646 1.432 1.442 0 .752-.572 1.37-1.302 1.436l-.13.006h-4.112c-1.482 0-2.635-.256-3.669-.812a5.792 5.792 0 0 1-2.392-2.409c-.553-1.04-.807-2.202-.807-3.693l.001.25v-.032l-.001-6.095.001-.065-.001.251c0-1.492.254-2.653.807-3.694a5.79 5.79 0 0 1 2.392-2.408c1.034-.557 2.187-.812 3.669-.812h4.112zM61.924 150c1.482 0 2.635.256 3.669.812a5.792 5.792 0 0 1 2.392 2.409c.553 1.04.807 2.202.807 3.693v5.877c0 1.491-.254 2.653-.807 3.694a5.79 5.79 0 0 1-2.392 2.408c-1.034.556-2.188.812-3.669.812h-.586c-1.481 0-2.635-.256-3.669-.812a5.79 5.79 0 0 1-2.392-2.408c-.553-1.041-.807-2.203-.807-3.694v-5.877c0-1.491.254-2.653.807-3.693a5.793 5.793 0 0 1 2.392-2.409c1.034-.556 2.188-.812 3.67-.812h.585zm87.099 0c3.37 0 5.302 2.154 6.047 5.472.297 1.326.368 2.446.368 4.081v8.71c0 .797-.641 1.442-1.432 1.442a1.437 1.437 0 0 1-1.432-1.442l-.001-4.806h-7.638l.001 4.566c0 .796-.642 1.442-1.432 1.442a1.438 1.438 0 0 1-1.433-1.442v-8.47c0-1.635.071-2.755.369-4.081.744-3.318 2.677-5.472 6.046-5.472h.537zm-37.928 0c1.482 0 2.635.256 3.669.812a5.787 5.787 0 0 1 2.392 2.409c.553 1.04.807 2.202.807 3.693v5.877c0 1.491-.254 2.653-.807 3.694a5.784 5.784 0 0 1-2.392 2.408c-1.034.556-2.187.812-3.669.812h-.586c-1.481 0-2.635-.256-3.669-.812a5.796 5.796 0 0 1-2.392-2.408c-.553-1.041-.807-2.203-.807-3.694v-5.877c0-1.491.254-2.653.807-3.693a5.798 5.798 0 0 1 2.392-2.409c1.034-.556 2.188-.812 3.669-.812h.586zm-10.557 0c.791 0 1.433.646 1.433 1.442 0 .796-.642 1.442-1.433 1.442l-4.896-.001v15.38c0 .752-.571 1.37-1.301 1.436l-.13.006a1.437 1.437 0 0 1-1.433-1.442v-15.38l-4.652.001c-.747 0-1.36-.576-1.426-1.311l-.006-.131c0-.796.641-1.442 1.432-1.442h12.412zm60.03 0c.791 0 1.432.646 1.432 1.442v16.821c0 .797-.641 1.442-1.432 1.442a1.437 1.437 0 0 1-1.432-1.442v-16.821c0-.796.641-1.442 1.432-1.442zm-110.71 1.256a1.428 1.428 0 0 1 1.933-.612c.701.368.973 1.239.607 1.945l-5.595 10.795-.093 4.907a1.439 1.439 0 0 1-1.329 1.411l-.13.003a1.437 1.437 0 0 1-1.405-1.469l.095-4.942-5.767-10.683a1.447 1.447 0 0 1 .456-1.883l.119-.072a1.426 1.426 0 0 1 1.942.578l4.683 8.675 4.485-8.653zm86.962 14.604c1.055 0 1.91.861 1.91 1.923a1.916 1.916 0 0 1-1.91 1.922 1.916 1.916 0 0 1-1.91-1.922c0-1.062.855-1.923 1.91-1.923zM122.976 150c.791 0 1.432.646 1.432 1.442v11.163c0 1.042.152 1.739.468 2.334.283.532.689.941 1.217 1.225.591.318 1.284.472 2.319.472h2.202c.791 0 1.432.645 1.432 1.442 0 .796-.641 1.441-1.432 1.441h-2.202c-1.482 0-2.636-.255-3.669-.812a5.792 5.792 0 0 1-2.393-2.408c-.552-1.041-.806-2.202-.806-3.694v-11.163c0-.796.641-1.442 1.432-1.442zm-61.052 2.884h-.586c-1.035 0-1.727.153-2.318.471a2.92 2.92 0 0 0-1.217 1.226c-.316.594-.468 1.291-.468 2.333v5.877c0 1.042.152 1.739.468 2.334.283.532.689.94 1.217 1.225.59.318 1.283.471 2.318.471h.586c1.035 0 1.727-.153 2.318-.471a2.918 2.918 0 0 0 1.217-1.225c.316-.595.469-1.292.469-2.334v-5.877c0-1.042-.153-1.739-.469-2.333a2.92 2.92 0 0 0-1.217-1.226c-.59-.318-1.283-.471-2.318-.471zm49.171 0h-.586c-1.035 0-1.727.153-2.318.471a2.925 2.925 0 0 0-1.217 1.226c-.316.594-.468 1.291-.468 2.333v5.877c0 1.042.152 1.739.468 2.334.283.532.689.94 1.217 1.225.591.318 1.283.471 2.318.471h.586c1.035 0 1.728-.153 2.318-.471a2.91 2.91 0 0 0 1.217-1.225c.316-.595.469-1.292.469-2.334v-5.877c0-1.042-.153-1.739-.469-2.333a2.913 2.913 0 0 0-1.217-1.226c-.59-.318-1.283-.471-2.318-.471zm37.928 0h-.537c-1.802 0-2.771 1.081-3.252 3.224-.238 1.059-.298 2.011-.298 3.445l-.001 1.02h7.638l.001-1.02c0-1.434-.061-2.386-.298-3.445-.481-2.143-1.451-3.224-3.253-3.224z" clip-rule="evenodd"/>
    <defs>
        <linearGradient id="a" x1="84.001" x2="84.001" y1="55.422" y2="138" gradientUnits="userSpaceOnUse">
            <stop stop-color="#13BDFF"/>
            <stop offset="1" stop-color="#3F83FF"/>
        </linearGradient>
        <linearGradient id="b" x1="116" x2="116" y1="51.106" y2="133.2" gradientUnits="userSpaceOnUse">
            <stop stop-color="#D8EDFF"/>
            <stop offset="1" stop-color="#8DC9FF"/>
        </linearGradient>
    </defs>
</svg>
